<?xml version="1.0" encoding="UTF-8"?><svg xmlns="http://www.w3.org/2000/svg" xmlns:xlink="http://www.w3.org/1999/xlink" stroke-dasharray="none" shape-rendering="auto" font-family="'Dialog'" width="911" text-rendering="auto" fill-opacity="1" contentScriptType="text/ecmascript" color-interpolation="auto" color-rendering="auto" preserveAspectRatio="xMidYMid meet" font-size="12" viewBox="0 0 911 411" fill="black" stroke="black" image-rendering="auto" stroke-miterlimit="10" zoomAndPan="magnify" version="1.0" stroke-linecap="square" stroke-linejoin="miter" contentStyleType="text/css" font-style="normal" height="411" stroke-width="1" stroke-dashoffset="0" font-weight="normal" stroke-opacity="1">
<!--Generated by the Batik Graphics2D SVG Generator-->
<defs id="genericDefs"/>
<g>
<defs id="defs1">
<clipPath clipPathUnits="userSpaceOnUse" id="clipPath1">
<path d="M454 9 L902 9 L902 402 L454 402 L454 9 Z"/>
</clipPath>
<clipPath clipPathUnits="userSpaceOnUse" id="clipPath2">
<path d="M464 14 L484 14 L484 31 L464 31 L464 14 Z"/>
</clipPath>
<clipPath clipPathUnits="userSpaceOnUse" id="clipPath3">
<path d="M454 30 L902 30 L902 402 L454 402 L454 30 Z"/>
</clipPath>
<clipPath clipPathUnits="userSpaceOnUse" id="clipPath4">
<path d="M504 44 L606 44 L606 170 L504 170 L504 44 Z"/>
</clipPath>
<clipPath clipPathUnits="userSpaceOnUse" id="clipPath5">
<path d="M507 47 L606 47 L606 64 L507 64 L507 47 Z"/>
</clipPath>
<clipPath clipPathUnits="userSpaceOnUse" id="clipPath6">
<path d="M533 63 L582 63 L582 80 L533 80 L533 63 Z"/>
</clipPath>
<clipPath clipPathUnits="userSpaceOnUse" id="clipPath7">
<path d="M504 79 L606 79 L606 104 L504 104 L504 79 Z"/>
</clipPath>
<clipPath clipPathUnits="userSpaceOnUse" id="clipPath8">
<path d="M509 105 L586 105 L586 122 L509 122 L509 105 Z"/>
</clipPath>
<clipPath clipPathUnits="userSpaceOnUse" id="clipPath9">
<path d="M509 120 L593 120 L593 137 L509 137 L509 120 Z"/>
</clipPath>
<clipPath clipPathUnits="userSpaceOnUse" id="clipPath10">
<path d="M504 103 L606 103 L606 151 L504 151 L504 103 Z"/>
</clipPath>
<clipPath clipPathUnits="userSpaceOnUse" id="clipPath11">
<path d="M504 150 L606 150 L606 170 L504 170 L504 150 Z"/>
</clipPath>
<clipPath clipPathUnits="userSpaceOnUse" id="clipPath12">
<path d="M694 44 L799 44 L799 185 L694 185 L694 44 Z"/>
</clipPath>
<clipPath clipPathUnits="userSpaceOnUse" id="clipPath13">
<path d="M697 47 L799 47 L799 64 L697 64 L697 47 Z"/>
</clipPath>
<clipPath clipPathUnits="userSpaceOnUse" id="clipPath14">
<path d="M733 63 L765 63 L765 80 L733 80 L733 63 Z"/>
</clipPath>
<clipPath clipPathUnits="userSpaceOnUse" id="clipPath15">
<path d="M694 79 L799 79 L799 104 L694 104 L694 79 Z"/>
</clipPath>
<clipPath clipPathUnits="userSpaceOnUse" id="clipPath16">
<path d="M699 105 L771 105 L771 122 L699 122 L699 105 Z"/>
</clipPath>
<clipPath clipPathUnits="userSpaceOnUse" id="clipPath17">
<path d="M699 120 L794 120 L794 137 L699 137 L699 120 Z"/>
</clipPath>
<clipPath clipPathUnits="userSpaceOnUse" id="clipPath18">
<path d="M699 135 L772 135 L772 152 L699 152 L699 135 Z"/>
</clipPath>
<clipPath clipPathUnits="userSpaceOnUse" id="clipPath19">
<path d="M694 103 L799 103 L799 166 L694 166 L694 103 Z"/>
</clipPath>
<clipPath clipPathUnits="userSpaceOnUse" id="clipPath20">
<path d="M694 165 L799 165 L799 185 L694 185 L694 165 Z"/>
</clipPath>
<clipPath clipPathUnits="userSpaceOnUse" id="clipPath21">
<path d="M694 229 L799 229 L799 370 L694 370 L694 229 Z"/>
</clipPath>
<clipPath clipPathUnits="userSpaceOnUse" id="clipPath22">
<path d="M727 232 L772 232 L772 249 L727 249 L727 232 Z"/>
</clipPath>
<clipPath clipPathUnits="userSpaceOnUse" id="clipPath23">
<path d="M694 248 L799 248 L799 273 L694 273 L694 248 Z"/>
</clipPath>
<clipPath clipPathUnits="userSpaceOnUse" id="clipPath24">
<path d="M699 274 L772 274 L772 291 L699 291 L699 274 Z"/>
</clipPath>
<clipPath clipPathUnits="userSpaceOnUse" id="clipPath25">
<path d="M699 289 L794 289 L794 306 L699 306 L699 289 Z"/>
</clipPath>
<clipPath clipPathUnits="userSpaceOnUse" id="clipPath26">
<path d="M699 304 L771 304 L771 321 L699 321 L699 304 Z"/>
</clipPath>
<clipPath clipPathUnits="userSpaceOnUse" id="clipPath27">
<path d="M699 319 L766 319 L766 336 L699 336 L699 319 Z"/>
</clipPath>
<clipPath clipPathUnits="userSpaceOnUse" id="clipPath28">
<path d="M694 272 L799 272 L799 351 L694 351 L694 272 Z"/>
</clipPath>
<clipPath clipPathUnits="userSpaceOnUse" id="clipPath29">
<path d="M694 350 L799 350 L799 370 L694 370 L694 350 Z"/>
</clipPath>
<clipPath clipPathUnits="userSpaceOnUse" id="clipPath30">
<path d="M504 229 L608 229 L608 355 L504 355 L504 229 Z"/>
</clipPath>
<clipPath clipPathUnits="userSpaceOnUse" id="clipPath31">
<path d="M523 232 L595 232 L595 249 L523 249 L523 232 Z"/>
</clipPath>
<clipPath clipPathUnits="userSpaceOnUse" id="clipPath32">
<path d="M504 248 L608 248 L608 273 L504 273 L504 248 Z"/>
</clipPath>
<clipPath clipPathUnits="userSpaceOnUse" id="clipPath33">
<path d="M509 274 L586 274 L586 291 L509 291 L509 274 Z"/>
</clipPath>
<clipPath clipPathUnits="userSpaceOnUse" id="clipPath34">
<path d="M509 289 L593 289 L593 306 L509 306 L509 289 Z"/>
</clipPath>
<clipPath clipPathUnits="userSpaceOnUse" id="clipPath35">
<path d="M509 304 L603 304 L603 321 L509 321 L509 304 Z"/>
</clipPath>
<clipPath clipPathUnits="userSpaceOnUse" id="clipPath36">
<path d="M504 272 L608 272 L608 335 L504 335 L504 272 Z"/>
</clipPath>
<clipPath clipPathUnits="userSpaceOnUse" id="clipPath37">
<path d="M504 334 L608 334 L608 355 L504 355 L504 334 Z"/>
</clipPath>
<clipPath clipPathUnits="userSpaceOnUse" id="clipPath38">
<path d="M9 9 L427 9 L427 402 L9 402 L9 9 Z"/>
</clipPath>
<clipPath clipPathUnits="userSpaceOnUse" id="clipPath39">
<path d="M19 14 L48 14 L48 31 L19 31 L19 14 Z"/>
</clipPath>
<clipPath clipPathUnits="userSpaceOnUse" id="clipPath40">
<path d="M9 30 L427 30 L427 402 L9 402 L9 30 Z"/>
</clipPath>
<clipPath clipPathUnits="userSpaceOnUse" id="clipPath41">
<path d="M42 104 L144 104 L144 206 L42 206 L42 104 Z"/>
</clipPath>
<clipPath clipPathUnits="userSpaceOnUse" id="clipPath42">
<path d="M62 107 L129 107 L129 124 L62 124 L62 107 Z"/>
</clipPath>
<clipPath clipPathUnits="userSpaceOnUse" id="clipPath43">
<path d="M42 123 L144 123 L144 150 L42 150 L42 123 Z"/>
</clipPath>
<clipPath clipPathUnits="userSpaceOnUse" id="clipPath44">
<path d="M47 151 L98 151 L98 168 L47 168 L47 151 Z"/>
</clipPath>
<clipPath clipPathUnits="userSpaceOnUse" id="clipPath45">
<path d="M42 149 L144 149 L144 184 L42 184 L42 149 Z"/>
</clipPath>
<clipPath clipPathUnits="userSpaceOnUse" id="clipPath46">
<path d="M42 183 L144 183 L144 206 L42 206 L42 183 Z"/>
</clipPath>
<clipPath clipPathUnits="userSpaceOnUse" id="clipPath47">
<path d="M162 104 L264 104 L264 206 L162 206 L162 104 Z"/>
</clipPath>
<clipPath clipPathUnits="userSpaceOnUse" id="clipPath48">
<path d="M178 107 L253 107 L253 124 L178 124 L178 107 Z"/>
</clipPath>
<clipPath clipPathUnits="userSpaceOnUse" id="clipPath49">
<path d="M162 123 L264 123 L264 150 L162 150 L162 123 Z"/>
</clipPath>
<clipPath clipPathUnits="userSpaceOnUse" id="clipPath50">
<path d="M167 151 L218 151 L218 168 L167 168 L167 151 Z"/>
</clipPath>
<clipPath clipPathUnits="userSpaceOnUse" id="clipPath51">
<path d="M162 149 L264 149 L264 184 L162 184 L162 149 Z"/>
</clipPath>
<clipPath clipPathUnits="userSpaceOnUse" id="clipPath52">
<path d="M162 183 L264 183 L264 206 L162 206 L162 183 Z"/>
</clipPath>
<clipPath clipPathUnits="userSpaceOnUse" id="clipPath53">
<path d="M282 104 L384 104 L384 206 L282 206 L282 104 Z"/>
</clipPath>
<clipPath clipPathUnits="userSpaceOnUse" id="clipPath54">
<path d="M307 107 L365 107 L365 124 L307 124 L307 107 Z"/>
</clipPath>
<clipPath clipPathUnits="userSpaceOnUse" id="clipPath55">
<path d="M282 123 L384 123 L384 150 L282 150 L282 123 Z"/>
</clipPath>
<clipPath clipPathUnits="userSpaceOnUse" id="clipPath56">
<path d="M287 151 L338 151 L338 168 L287 168 L287 151 Z"/>
</clipPath>
<clipPath clipPathUnits="userSpaceOnUse" id="clipPath57">
<path d="M282 149 L384 149 L384 184 L282 184 L282 149 Z"/>
</clipPath>
<clipPath clipPathUnits="userSpaceOnUse" id="clipPath58">
<path d="M282 183 L384 183 L384 206 L282 206 L282 183 Z"/>
</clipPath>
<clipPath clipPathUnits="userSpaceOnUse" id="clipPath59">
<path d="M-1 -1 L912 -1 L912 412 L-1 412 L-1 -1 Z"/>
</clipPath>
<clipPath clipPathUnits="userSpaceOnUse" id="clipPath60">
<path d="M549 168 L562 168 L562 186 L549 186 L549 168 Z"/>
</clipPath>
<clipPath clipPathUnits="userSpaceOnUse" id="clipPath61">
<path d="M740 183 L753 183 L753 201 L740 201 L740 183 Z"/>
</clipPath>
</defs>
<g fill="white" font-family="'Segoe UI'" stroke-linejoin="round" stroke="white" stroke-width="0" stroke-miterlimit="0">
<rect x="455" y="10" clip-path="url(#clipPath1)" width="38" height="21" stroke="none"/>
<rect x="455" y="31" clip-path="url(#clipPath1)" width="446" height="370" stroke="none"/>
</g>
<g stroke-width="1.1" font-family="'Segoe UI'" stroke-linecap="butt">
<rect x="455" y="10" clip-path="url(#clipPath1)" fill="none" width="38" height="21"/>
<text xml:space="preserve" x="465" y="28" clip-path="url(#clipPath2)" stroke="none">rmi</text>
<rect x="455" y="31" clip-path="url(#clipPath3)" fill="none" width="445" height="369"/>
<rect x="505" y="45" clip-path="url(#clipPath4)" fill="white" width="100" height="124" stroke="none"/>
<text xml:space="preserve" x="529" y="61" clip-path="url(#clipPath5)" stroke="none">«Interface»</text>
<text xml:space="preserve" x="534" y="77" clip-path="url(#clipPath6)" stroke="none">Message</text>
<line clip-path="url(#clipPath7)" fill="none" x1="505" x2="605" y1="80" y2="80"/>
<text xml:space="preserve" x="510" y="119" clip-path="url(#clipPath8)" stroke="none"> + getSender()</text>
<text xml:space="preserve" x="510" y="134" clip-path="url(#clipPath9)" stroke="none"> + getContent()</text>
<line clip-path="url(#clipPath10)" fill="none" x1="505" x2="605" y1="104" y2="104"/>
<line clip-path="url(#clipPath11)" fill="none" x1="505" x2="605" y1="151" y2="151"/>
<rect x="505" y="45" clip-path="url(#clipPath4)" fill="none" width="99" height="123"/>
<rect x="695" y="45" clip-path="url(#clipPath12)" fill="white" width="103" height="139" stroke="none"/>
<text xml:space="preserve" x="720" y="61" clip-path="url(#clipPath13)" stroke="none">«Interface»</text>
<text xml:space="preserve" x="734" y="77" clip-path="url(#clipPath14)" stroke="none">SiteItf</text>
<line clip-path="url(#clipPath15)" fill="none" x1="695" x2="798" y1="80" y2="80"/>
<text xml:space="preserve" x="700" y="119" clip-path="url(#clipPath16)" stroke="none"> + addChild()</text>
<text xml:space="preserve" x="700" y="134" clip-path="url(#clipPath17)" stroke="none"> + sendMessage()</text>
<text xml:space="preserve" x="700" y="149" clip-path="url(#clipPath18)" stroke="none"> + getName()</text>
<line clip-path="url(#clipPath19)" fill="none" x1="695" x2="798" y1="104" y2="104"/>
<line clip-path="url(#clipPath20)" fill="none" x1="695" x2="798" y1="166" y2="166"/>
<rect x="695" y="45" clip-path="url(#clipPath12)" fill="none" width="102" height="138"/>
<rect x="695" y="230" clip-path="url(#clipPath21)" fill="white" width="103" height="139" stroke="none"/>
<text xml:space="preserve" x="728" y="246" clip-path="url(#clipPath22)" stroke="none">SiteImpl</text>
<line clip-path="url(#clipPath23)" fill="none" x1="695" x2="798" y1="249" y2="249"/>
<text xml:space="preserve" x="700" y="288" clip-path="url(#clipPath24)" stroke="none"> + getName()</text>
<text xml:space="preserve" x="700" y="303" clip-path="url(#clipPath25)" stroke="none"> + sendMessage()</text>
<text xml:space="preserve" x="700" y="318" clip-path="url(#clipPath26)" stroke="none"> + addChild()</text>
<text xml:space="preserve" x="700" y="333" clip-path="url(#clipPath27)" stroke="none"> + SiteImpl()</text>
<line clip-path="url(#clipPath28)" fill="none" x1="695" x2="798" y1="273" y2="273"/>
<line clip-path="url(#clipPath29)" fill="none" x1="695" x2="798" y1="351" y2="351"/>
<rect x="695" y="230" clip-path="url(#clipPath21)" fill="none" width="102" height="138"/>
<rect x="505" y="230" clip-path="url(#clipPath30)" fill="white" width="102" height="124" stroke="none"/>
<text xml:space="preserve" x="524" y="246" clip-path="url(#clipPath31)" stroke="none">MessageImpl</text>
<line clip-path="url(#clipPath32)" fill="none" x1="505" x2="607" y1="249" y2="249"/>
<text xml:space="preserve" x="510" y="288" clip-path="url(#clipPath33)" stroke="none"> + getSender()</text>
<text xml:space="preserve" x="510" y="303" clip-path="url(#clipPath34)" stroke="none"> + getContent()</text>
<text xml:space="preserve" x="510" y="318" clip-path="url(#clipPath35)" stroke="none"> + MessageImpl()</text>
<line clip-path="url(#clipPath36)" fill="none" x1="505" x2="607" y1="273" y2="273"/>
<line clip-path="url(#clipPath37)" fill="none" x1="505" x2="607" y1="335" y2="335"/>
<rect x="505" y="230" clip-path="url(#clipPath30)" fill="none" width="101" height="123"/>
<line clip-path="url(#clipPath3)" fill="none" x1="455" x2="901" y1="31" y2="31"/>
<rect x="455" y="10" clip-path="url(#clipPath1)" fill="none" width="38" height="21" stroke-width="0.1"/>
<rect x="10" y="10" clip-path="url(#clipPath38)" fill="white" width="47" height="21" stroke="none" stroke-width="0.1"/>
<rect x="10" y="31" clip-path="url(#clipPath38)" fill="white" width="416" height="370" stroke="none" stroke-width="0.1"/>
<rect x="10" y="10" clip-path="url(#clipPath38)" fill="none" width="47" height="21"/>
<text xml:space="preserve" x="20" y="28" clip-path="url(#clipPath39)" stroke="none">main</text>
<rect x="10" y="31" clip-path="url(#clipPath40)" fill="none" width="415" height="369"/>
<rect x="43" y="105" clip-path="url(#clipPath41)" fill="white" width="100" height="100" stroke="none"/>
<text xml:space="preserve" x="63" y="121" clip-path="url(#clipPath42)" stroke="none">GraphServer</text>
<line clip-path="url(#clipPath43)" fill="none" x1="43" x2="143" y1="124" y2="124"/>
<text xml:space="preserve" x="48" y="165" clip-path="url(#clipPath44)" stroke="none"> + main()</text>
<line clip-path="url(#clipPath45)" fill="none" x1="43" x2="143" y1="150" y2="150"/>
<line clip-path="url(#clipPath46)" fill="none" x1="43" x2="143" y1="184" y2="184"/>
<rect x="43" y="105" clip-path="url(#clipPath41)" fill="none" width="99" height="99"/>
<rect x="163" y="105" clip-path="url(#clipPath47)" fill="white" width="100" height="100" stroke="none"/>
<text xml:space="preserve" x="179" y="121" clip-path="url(#clipPath48)" stroke="none">SendMessage</text>
<line clip-path="url(#clipPath49)" fill="none" x1="163" x2="263" y1="124" y2="124"/>
<text xml:space="preserve" x="168" y="165" clip-path="url(#clipPath50)" stroke="none"> + main()</text>
<line clip-path="url(#clipPath51)" fill="none" x1="163" x2="263" y1="150" y2="150"/>
<line clip-path="url(#clipPath52)" fill="none" x1="163" x2="263" y1="184" y2="184"/>
<rect x="163" y="105" clip-path="url(#clipPath47)" fill="none" width="99" height="99"/>
<rect x="283" y="105" clip-path="url(#clipPath53)" fill="white" width="100" height="100" stroke="none"/>
<text xml:space="preserve" x="308" y="121" clip-path="url(#clipPath54)" stroke="none">TreeServer</text>
<line clip-path="url(#clipPath55)" fill="none" x1="283" x2="383" y1="124" y2="124"/>
<text xml:space="preserve" x="288" y="165" clip-path="url(#clipPath56)" stroke="none"> + main()</text>
<line clip-path="url(#clipPath57)" fill="none" x1="283" x2="383" y1="150" y2="150"/>
<line clip-path="url(#clipPath58)" fill="none" x1="283" x2="383" y1="184" y2="184"/>
<rect x="283" y="105" clip-path="url(#clipPath53)" fill="none" width="99" height="99"/>
<line clip-path="url(#clipPath40)" fill="none" x1="10" x2="426" y1="31" y2="31"/>
<rect x="10" y="10" clip-path="url(#clipPath38)" fill="none" width="47" height="21" stroke-width="0.1"/>
<line clip-path="url(#clipPath59)" fill="none" text-rendering="optimizeLegibility" x1="555" x2="555" y1="230" y2="169" stroke-dasharray="5,5,5,5,5,5,5,5,5,5"/>
</g>
<g stroke-linecap="butt" fill="white" text-rendering="optimizeLegibility" font-family="'Segoe UI'" stroke-dasharray="5,5,5,5,5,5,5,5,5,5" stroke="white" stroke-width="1.1">
<polygon clip-path="url(#clipPath60)" points=" 555 169 560 184 550 184" stroke="none"/>
<polygon fill="none" stroke-dasharray="none" clip-path="url(#clipPath60)" points=" 555 169 560 184 550 184" stroke="black"/>
<line clip-path="url(#clipPath59)" fill="none" x1="746" x2="746" y1="230" y2="184" stroke="black"/>
<polygon clip-path="url(#clipPath61)" points=" 746 184 751 199 741 199" stroke="none"/>
<polygon fill="none" stroke-dasharray="none" clip-path="url(#clipPath61)" points=" 746 184 751 199 741 199" stroke="black"/>
<line clip-path="url(#clipPath59)" fill="none" x1="555" x2="555" y1="230" y2="169" stroke="black"/>
<polygon clip-path="url(#clipPath60)" points=" 555 169 560 184 550 184" stroke="none"/>
<polygon fill="none" stroke-dasharray="none" clip-path="url(#clipPath60)" points=" 555 169 560 184 550 184" stroke="black"/>
<line clip-path="url(#clipPath59)" fill="none" x1="746" x2="746" y1="230" y2="184" stroke="black"/>
<polygon clip-path="url(#clipPath61)" points=" 746 184 751 199 741 199" stroke="none"/>
<polygon fill="none" stroke-dasharray="none" clip-path="url(#clipPath61)" points=" 746 184 751 199 741 199" stroke="black"/>
</g>
</g>
</svg>
